<svg width="1745" height="260" viewBox="0 0 1745 260" fill="none" xmlns="http://www.w3.org/2000/svg">
<rect x="38" y="30" width="200" height="200" rx="30" fill="#2D4A3E"/>
<path d="M76.3306 124.191L138.02 68.6099C138.403 68.2643 138.987 68.2675 139.367 68.6174L199.678 124.192C199.883 124.381 200 124.648 200 124.927V165.454C200 165.692 199.915 165.922 199.761 166.102L178.007 191.648C177.817 191.871 177.539 192 177.246 192H153.068C152.788 192 152.521 191.883 152.332 191.677L139.399 177.608C139.015 177.191 138.362 177.175 137.959 177.574L123.663 191.711C123.476 191.896 123.223 192 122.96 192H98.754C98.461 192 98.1827 191.871 97.9927 191.648L76.2386 166.102C76.0846 165.922 76 165.692 76 165.454V124.934C76 124.651 76.1202 124.381 76.3306 124.191Z" stroke="white" stroke-width="15"/>
<path d="M260.8 201L312 59H343.8L395 201H367.8L356 167.4H299.8L288 201H260.8ZM307.4 145.2H348.4L328 85.2L307.4 145.2ZM408.891 231V94.2H433.491L434.091 117L431.491 115.8C434.157 107.933 438.491 102 444.491 98C450.624 93.8667 457.757 91.8 465.891 91.8C476.024 91.8 484.424 94.3333 491.091 99.4C497.891 104.467 502.957 111.2 506.291 119.6C509.624 128 511.291 137.333 511.291 147.6C511.291 157.867 509.557 167.2 506.091 175.6C502.757 184 497.691 190.733 490.891 195.8C484.224 200.867 475.824 203.4 465.691 203.4C460.357 203.4 455.357 202.467 450.691 200.6C446.157 198.733 442.224 196.067 438.891 192.6C435.691 189.133 433.424 185.067 432.091 180.4L434.491 178.4V231H408.891ZM459.691 182.6C467.424 182.6 473.491 179.533 477.891 173.4C482.424 167.133 484.691 158.533 484.691 147.6C484.691 136.667 482.424 128.133 477.891 122C473.491 115.733 467.424 112.6 459.691 112.6C454.491 112.6 450.024 113.933 446.291 116.6C442.557 119.133 439.624 123 437.491 128.2C435.491 133.4 434.491 139.867 434.491 147.6C434.491 155.333 435.491 161.8 437.491 167C439.491 172.2 442.357 176.133 446.091 178.8C449.957 181.333 454.491 182.6 459.691 182.6ZM531.156 231V94.2H555.756L556.356 117L553.756 115.8C556.423 107.933 560.756 102 566.756 98C572.89 93.8667 580.023 91.8 588.156 91.8C598.29 91.8 606.69 94.3333 613.356 99.4C620.156 104.467 625.223 111.2 628.556 119.6C631.89 128 633.556 137.333 633.556 147.6C633.556 157.867 631.823 167.2 628.356 175.6C625.023 184 619.956 190.733 613.156 195.8C606.49 200.867 598.09 203.4 587.956 203.4C582.623 203.4 577.623 202.467 572.956 200.6C568.423 198.733 564.49 196.067 561.156 192.6C557.956 189.133 555.69 185.067 554.356 180.4L556.756 178.4V231H531.156ZM581.956 182.6C589.69 182.6 595.756 179.533 600.156 173.4C604.69 167.133 606.956 158.533 606.956 147.6C606.956 136.667 604.69 128.133 600.156 122C595.756 115.733 589.69 112.6 581.956 112.6C576.756 112.6 572.29 113.933 568.556 116.6C564.823 119.133 561.89 123 559.756 128.2C557.756 133.4 556.756 139.867 556.756 147.6C556.756 155.333 557.756 161.8 559.756 167C561.756 172.2 564.623 176.133 568.356 178.8C572.223 181.333 576.756 182.6 581.956 182.6ZM653.422 201V94.2H677.422L678.422 123.8L676.222 123.4C677.822 113.133 680.822 105.733 685.222 101.2C689.755 96.5333 695.889 94.2 703.622 94.2H713.422V116.2H703.422C697.955 116.2 693.422 117 689.822 118.6C686.222 120.2 683.489 122.733 681.622 126.2C679.889 129.533 679.022 133.933 679.022 139.4V201H653.422ZM759.031 203.4C747.831 203.4 738.831 200.867 732.031 195.8C725.231 190.6 721.831 183.4 721.831 174.2C721.831 165 724.698 157.8 730.431 152.6C736.165 147.4 744.898 143.667 756.631 141.4L792.031 134.4C792.031 126.8 790.298 121.133 786.831 117.4C783.365 113.533 778.231 111.6 771.431 111.6C765.298 111.6 760.431 113.067 756.831 116C753.365 118.8 750.965 122.867 749.631 128.2L723.631 127C725.765 115.667 730.965 107 739.231 101C747.498 94.8667 758.231 91.8 771.431 91.8C786.631 91.8 798.098 95.6667 805.831 103.4C813.698 111 817.631 121.933 817.631 136.2V175C817.631 177.8 818.098 179.733 819.031 180.8C820.098 181.867 821.631 182.4 823.631 182.4H827.031V201C826.231 201.267 824.898 201.467 823.031 201.6C821.298 201.733 819.498 201.8 817.631 201.8C813.231 201.8 809.298 201.133 805.831 199.8C802.365 198.333 799.698 195.867 797.831 192.4C795.965 188.8 795.031 183.933 795.031 177.8L797.231 179.4C796.165 184.067 793.831 188.267 790.231 192C786.765 195.6 782.365 198.4 777.031 200.4C771.698 202.4 765.698 203.4 759.031 203.4ZM764.231 184.8C769.965 184.8 774.898 183.667 779.031 181.4C783.165 179.133 786.365 176 788.631 172C790.898 168 792.031 163.267 792.031 157.8V151.8L764.431 157.4C758.698 158.6 754.565 160.4 752.031 162.8C749.631 165.067 748.431 168.067 748.431 171.8C748.431 175.933 749.765 179.133 752.431 181.4C755.231 183.667 759.165 184.8 764.231 184.8ZM842.484 201V94.2H868.084V201H842.484ZM842.084 80V57.2H868.684V80H842.084ZM937.642 203.4C927.109 203.4 918.242 201.867 911.042 198.8C903.976 195.733 898.509 191.467 894.642 186C890.776 180.533 888.576 174.333 888.042 167.4L914.242 166.2C915.176 171.8 917.509 176.133 921.242 179.2C924.976 182.267 930.509 183.8 937.842 183.8C943.842 183.8 948.509 182.867 951.842 181C955.309 179 957.042 175.933 957.042 171.8C957.042 169.4 956.442 167.4 955.242 165.8C954.042 164.2 951.776 162.8 948.442 161.6C945.109 160.4 940.176 159.2 933.642 158C922.709 156.133 914.109 153.867 907.842 151.2C901.576 148.4 897.109 144.933 894.442 140.8C891.909 136.667 890.642 131.533 890.642 125.4C890.642 115.4 894.442 107.333 902.042 101.2C909.776 94.9333 921.042 91.8 935.842 91.8C945.442 91.8 953.509 93.4 960.042 96.6C966.576 99.6667 971.642 103.933 975.242 109.4C978.976 114.733 981.309 120.867 982.242 127.8L956.442 129C955.776 125.4 954.576 122.267 952.842 119.6C951.109 116.933 948.776 114.933 945.842 113.6C942.909 112.133 939.442 111.4 935.442 111.4C929.442 111.4 924.909 112.6 921.842 115C918.776 117.4 917.242 120.6 917.242 124.6C917.242 127.4 917.909 129.733 919.242 131.6C920.709 133.467 923.042 135 926.242 136.2C929.442 137.267 933.709 138.267 939.042 139.2C950.242 140.933 959.042 143.2 965.442 146C971.976 148.667 976.576 152.133 979.242 156.4C982.042 160.533 983.442 165.533 983.442 171.4C983.442 178.2 981.509 184 977.642 188.8C973.909 193.6 968.576 197.267 961.642 199.8C954.842 202.2 946.842 203.4 937.642 203.4ZM1035.98 203.4C1024.78 203.4 1015.78 200.867 1008.98 195.8C1002.18 190.6 998.784 183.4 998.784 174.2C998.784 165 1001.65 157.8 1007.38 152.6C1013.12 147.4 1021.85 143.667 1033.58 141.4L1068.98 134.4C1068.98 126.8 1067.25 121.133 1063.78 117.4C1060.32 113.533 1055.18 111.6 1048.38 111.6C1042.25 111.6 1037.38 113.067 1033.78 116C1030.32 118.8 1027.92 122.867 1026.58 128.2L1000.58 127C1002.72 115.667 1007.92 107 1016.18 101C1024.45 94.8667 1035.18 91.8 1048.38 91.8C1063.58 91.8 1075.05 95.6667 1082.78 103.4C1090.65 111 1094.58 121.933 1094.58 136.2V175C1094.58 177.8 1095.05 179.733 1095.98 180.8C1097.05 181.867 1098.58 182.4 1100.58 182.4H1103.98V201C1103.18 201.267 1101.85 201.467 1099.98 201.6C1098.25 201.733 1096.45 201.8 1094.58 201.8C1090.18 201.8 1086.25 201.133 1082.78 199.8C1079.32 198.333 1076.65 195.867 1074.78 192.4C1072.92 188.8 1071.98 183.933 1071.98 177.8L1074.18 179.4C1073.12 184.067 1070.78 188.267 1067.18 192C1063.72 195.6 1059.32 198.4 1053.98 200.4C1048.65 202.4 1042.65 203.4 1035.98 203.4ZM1041.18 184.8C1046.92 184.8 1051.85 183.667 1055.98 181.4C1060.12 179.133 1063.32 176 1065.58 172C1067.85 168 1068.98 163.267 1068.98 157.8V151.8L1041.38 157.4C1035.65 158.6 1031.52 160.4 1028.98 162.8C1026.58 165.067 1025.38 168.067 1025.38 171.8C1025.38 175.933 1026.72 179.133 1029.38 181.4C1032.18 183.667 1036.12 184.8 1041.18 184.8ZM1144.65 201C1136.91 201 1130.71 199 1126.05 195C1121.38 191 1119.05 184.6 1119.05 175.8V59H1144.65V173.2C1144.65 175.867 1145.31 177.867 1146.65 179.2C1148.11 180.533 1150.11 181.2 1152.65 181.2H1160.45V201H1144.65ZM1227.69 201V59H1274.89C1297.55 59 1314.95 65.2 1327.09 77.6C1339.35 89.8667 1345.49 107.4 1345.49 130.2C1345.49 152.867 1339.49 170.333 1327.49 182.6C1315.49 194.867 1298.35 201 1276.09 201H1227.69ZM1253.69 178.4H1274.89C1289.69 178.4 1300.69 174.4 1307.89 166.4C1315.09 158.4 1318.69 146.333 1318.69 130.2C1318.69 113.8 1315.09 101.6 1307.89 93.6C1300.69 85.6 1289.69 81.6 1274.89 81.6H1253.69V178.4ZM1416.03 203.4C1405.36 203.4 1396.09 201.133 1388.23 196.6C1380.36 191.933 1374.29 185.4 1370.03 177C1365.76 168.6 1363.63 158.8 1363.63 147.6C1363.63 136.4 1365.76 126.667 1370.03 118.4C1374.29 110 1380.29 103.467 1388.03 98.8C1395.89 94.1333 1405.03 91.8 1415.43 91.8C1425.56 91.8 1434.43 94.0667 1442.03 98.6C1449.76 103.133 1455.69 109.667 1459.83 118.2C1463.96 126.733 1466.03 137 1466.03 149V154.8H1390.23C1390.76 164.133 1393.29 171.2 1397.83 176C1402.49 180.667 1408.63 183 1416.23 183C1421.96 183 1426.69 181.733 1430.43 179.2C1434.29 176.533 1436.96 172.867 1438.43 168.2L1464.63 169.8C1461.69 180.2 1455.89 188.4 1447.23 194.4C1438.69 200.4 1428.29 203.4 1416.03 203.4ZM1390.23 137.6H1439.63C1439.09 128.933 1436.63 122.533 1432.23 118.4C1427.83 114.133 1422.23 112 1415.43 112C1408.63 112 1402.96 114.2 1398.43 118.6C1394.03 123 1391.29 129.333 1390.23 137.6ZM1529.44 203.4C1518.91 203.4 1510.04 201.867 1502.84 198.8C1495.77 195.733 1490.31 191.467 1486.44 186C1482.57 180.533 1480.37 174.333 1479.84 167.4L1506.04 166.2C1506.97 171.8 1509.31 176.133 1513.04 179.2C1516.77 182.267 1522.31 183.8 1529.64 183.8C1535.64 183.8 1540.31 182.867 1543.64 181C1547.11 179 1548.84 175.933 1548.84 171.8C1548.84 169.4 1548.24 167.4 1547.04 165.8C1545.84 164.2 1543.57 162.8 1540.24 161.6C1536.91 160.4 1531.97 159.2 1525.44 158C1514.51 156.133 1505.91 153.867 1499.64 151.2C1493.37 148.4 1488.91 144.933 1486.24 140.8C1483.71 136.667 1482.44 131.533 1482.44 125.4C1482.44 115.4 1486.24 107.333 1493.84 101.2C1501.57 94.9333 1512.84 91.8 1527.64 91.8C1537.24 91.8 1545.31 93.4 1551.84 96.6C1558.37 99.6667 1563.44 103.933 1567.04 109.4C1570.77 114.733 1573.11 120.867 1574.04 127.8L1548.24 129C1547.57 125.4 1546.37 122.267 1544.64 119.6C1542.91 116.933 1540.57 114.933 1537.64 113.6C1534.71 112.133 1531.24 111.4 1527.24 111.4C1521.24 111.4 1516.71 112.6 1513.64 115C1510.57 117.4 1509.04 120.6 1509.04 124.6C1509.04 127.4 1509.71 129.733 1511.04 131.6C1512.51 133.467 1514.84 135 1518.04 136.2C1521.24 137.267 1525.51 138.267 1530.84 139.2C1542.04 140.933 1550.84 143.2 1557.24 146C1563.77 148.667 1568.37 152.133 1571.04 156.4C1573.84 160.533 1575.24 165.533 1575.24 171.4C1575.24 178.2 1573.31 184 1569.44 188.8C1565.71 193.6 1560.37 197.267 1553.44 199.8C1546.64 202.2 1538.64 203.4 1529.44 203.4ZM1595.22 201V59H1620.82V142.4L1664.62 94.2H1696.22L1654.42 138.6L1697.62 201H1668.82L1637.62 153.8L1620.82 171.6V201H1595.22Z" fill="#2D4A3E"/>
</svg>
